<svg width="881" height="661" viewBox="0 0 881 661" fill="none" xmlns="http://www.w3.org/2000/svg">
<line x1="810.535" y1="661" x2="810.535" stroke="black" stroke-opacity="0.25" stroke-width="0.249434"/>
<line x1="688.001" y1="612.366" x2="688.001" y2="48.6395" stroke="black" stroke-opacity="0.25" stroke-width="0.249434"/>
<line x1="586.045" y1="661" x2="586.045" stroke="black" stroke-opacity="0.25" stroke-width="0.249434"/>
<line x1="437.632" y1="661" x2="437.632" stroke="black" stroke-opacity="0.25" stroke-width="0.249434"/>
<line x1="286.724" y1="661" x2="286.724" stroke="black" stroke-opacity="0.25" stroke-width="0.249434"/>
<line x1="187.278" y1="612.361" x2="187.278" y2="48.6394" stroke="black" stroke-opacity="0.25" stroke-width="0.249434"/>
<line x1="62.2337" y1="661" x2="62.2337" stroke="black" stroke-opacity="0.25" stroke-width="0.249434"/>
<line y1="-0.124717" x2="873.019" y2="-0.124717" transform="matrix(-1 0 0 1 873.019 48.6396)" stroke="black" stroke-opacity="0.25" stroke-width="0.249434"/>
<line y1="-0.124717" x2="873.019" y2="-0.124717" transform="matrix(-1 0 0 1 873.019 612.36)" stroke="black" stroke-opacity="0.25" stroke-width="0.249434"/>
<line y1="-0.124717" x2="873.019" y2="-0.124717" transform="matrix(-1 0 0 1 880.502 213.266)" stroke="black" stroke-opacity="0.25" stroke-width="0.249434"/>
<line y1="-0.124717" x2="873.019" y2="-0.124717" transform="matrix(-1 0 0 1 873.019 330.5)" stroke="black" stroke-opacity="0.25" stroke-width="0.249434"/>
<line y1="-0.124717" x2="873.019" y2="-0.124717" transform="matrix(-1 0 0 1 873.019 412.813)" stroke="black" stroke-opacity="0.25" stroke-width="0.249434"/>
<line x1="62.3584" y1="113.68" x2="810.661" y2="113.68" stroke="black" stroke-opacity="0.25" stroke-width="0.249434"/>
<line x1="62.3584" y1="512.462" x2="810.661" y2="512.462" stroke="black" stroke-opacity="0.25" stroke-width="0.249434"/>
<line x1="4.91371" y1="655.912" x2="865.461" y2="7.38348" stroke="black" stroke-opacity="0.25" stroke-width="0.249434"/>
<line y1="-0.124717" x2="1077.56" y2="-0.124717" transform="matrix(-0.798609 -0.60185 -0.60185 0.798609 868.03 654.764)" stroke="black" stroke-opacity="0.25" stroke-width="0.249434"/>
<circle cx="437.757" cy="330.5" r="124.592" stroke="black" stroke-opacity="0.25" stroke-width="0.249434"/>
<circle cx="435.262" cy="330.5" r="155.771" stroke="black" stroke-opacity="0.25" stroke-width="0.249434"/>
</svg>
