<svg width="32" height="32" viewBox="0 0 32 32" fill="none" xmlns="http://www.w3.org/2000/svg">
<g clip-path="url(#clip0_4_25)">
<path d="M15.5664 21.5859C16.2435 21.5859 16.8831 21.4557 17.4854 21.1953C18.0876 20.9349 18.6166 20.5752 19.0723 20.1162C19.528 19.6572 19.8861 19.1282 20.1465 18.5293C20.4069 17.9304 20.5371 17.2891 20.5371 16.6055C20.5371 15.9219 20.4069 15.279 20.1465 14.6768C19.8861 14.0745 19.528 13.5439 19.0723 13.085C18.6166 12.626 18.0876 12.2663 17.4854 12.0059C16.8831 11.7454 16.2435 11.6152 15.5664 11.6152C14.8828 11.6152 14.2415 11.7454 13.6426 12.0059C13.0436 12.2663 12.5146 12.626 12.0557 13.085C11.5967 13.5439 11.237 14.0745 10.9766 14.6768C10.7161 15.279 10.5859 15.9219 10.5859 16.6055C10.5859 17.2891 10.7161 17.9304 10.9766 18.5293C11.237 19.1282 11.5967 19.6572 12.0557 20.1162C12.5146 20.5752 13.0436 20.9349 13.6426 21.1953C14.2415 21.4557 14.8828 21.5859 15.5664 21.5859ZM15.5664 20.0918C14.9284 20.0918 14.3457 19.9339 13.8184 19.6182C13.291 19.3024 12.8678 18.8808 12.5488 18.3535C12.2298 17.8262 12.0703 17.2435 12.0703 16.6055C12.0703 15.9675 12.2298 15.3848 12.5488 14.8574C12.8678 14.3301 13.291 13.9069 13.8184 13.5879C14.3457 13.2689 14.9284 13.1094 15.5664 13.1094C16.2044 13.1094 16.7871 13.2689 17.3145 13.5879C17.8418 13.9069 18.2634 14.3301 18.5791 14.8574C18.8948 15.3848 19.0527 15.9675 19.0527 16.6055C19.0527 17.2435 18.8948 17.8262 18.5791 18.3535C18.2634 18.8808 17.8418 19.3024 17.3145 19.6182C16.7871 19.9339 16.2044 20.0918 15.5664 20.0918ZM16.4258 6.85938C16.4258 6.625 16.3412 6.42318 16.1719 6.25391C16.0026 6.08464 15.8008 6 15.5664 6C15.3385 6 15.14 6.08464 14.9707 6.25391C14.8014 6.42318 14.7168 6.625 14.7168 6.85938V8.91016C14.7168 9.13802 14.8014 9.33659 14.9707 9.50586C15.14 9.67513 15.3385 9.75977 15.5664 9.75977C15.8008 9.75977 16.0026 9.67513 16.1719 9.50586C16.3412 9.33659 16.4258 9.13802 16.4258 8.91016V6.85938ZM20.3906 10.5801C20.2279 10.7428 20.1465 10.943 20.1465 11.1807C20.1465 11.4183 20.2279 11.6185 20.3906 11.7812C20.5534 11.944 20.7536 12.027 20.9912 12.0303C21.2289 12.0335 21.4323 11.9505 21.6016 11.7812L23.0566 10.3262C23.2194 10.1634 23.3008 9.96159 23.3008 9.7207C23.3008 9.47982 23.2194 9.278 23.0566 9.11523C22.8939 8.95247 22.6953 8.87109 22.4609 8.87109C22.2266 8.87109 22.028 8.95247 21.8652 9.11523L20.3906 10.5801ZM25.2832 17.4551C25.5176 17.4551 25.7194 17.3705 25.8887 17.2012C26.058 17.0319 26.1426 16.8334 26.1426 16.6055C26.1426 16.3711 26.058 16.1709 25.8887 16.0049C25.7194 15.8389 25.5176 15.7559 25.2832 15.7559H23.2422C23.0143 15.7559 22.8158 15.8389 22.6465 16.0049C22.4772 16.1709 22.3926 16.3711 22.3926 16.6055C22.3926 16.8334 22.4772 17.0319 22.6465 17.2012C22.8158 17.3705 23.0143 17.4551 23.2422 17.4551H25.2832ZM21.5918 21.4395C21.4291 21.2767 21.2289 21.1953 20.9912 21.1953C20.7536 21.1953 20.5534 21.2767 20.3906 21.4395C20.2279 21.6022 20.1465 21.8008 20.1465 22.0352C20.1465 22.2695 20.2279 22.4713 20.3906 22.6406L21.8652 24.1055C22.028 24.2682 22.2266 24.348 22.4609 24.3447C22.6953 24.3414 22.8939 24.2584 23.0566 24.0957C23.2194 23.933 23.3008 23.7328 23.3008 23.4951C23.3008 23.2575 23.2194 23.0573 23.0566 22.8945L21.5918 21.4395ZM16.4258 24.3008C16.4258 24.0664 16.3412 23.8646 16.1719 23.6953C16.0026 23.526 15.8008 23.4414 15.5664 23.4414C15.3385 23.4414 15.14 23.526 14.9707 23.6953C14.8014 23.8646 14.7168 24.0664 14.7168 24.3008V26.3516C14.7168 26.5795 14.8014 26.778 14.9707 26.9473C15.14 27.1166 15.3385 27.2012 15.5664 27.2012C15.8008 27.2012 16.0026 27.1166 16.1719 26.9473C16.3412 26.778 16.4258 26.5795 16.4258 26.3516V24.3008ZM8.07617 22.8848C7.91341 23.0475 7.83203 23.2477 7.83203 23.4854C7.83203 23.723 7.91016 23.9232 8.06641 24.0859C8.22917 24.2487 8.43099 24.3317 8.67188 24.335C8.91276 24.3382 9.11458 24.2584 9.27734 24.0957L10.7324 22.6406C10.8952 22.4779 10.9782 22.2777 10.9815 22.04C10.9847 21.8024 10.9049 21.6022 10.7422 21.4395C10.5794 21.2767 10.3776 21.1953 10.1367 21.1953C9.89583 21.1953 9.69401 21.2767 9.53125 21.4395L8.07617 22.8848ZM5.84961 15.7559C5.62174 15.7559 5.42318 15.8389 5.25391 16.0049C5.08464 16.1709 5 16.3711 5 16.6055C5 16.8334 5.08464 17.0319 5.25391 17.2012C5.42318 17.3705 5.62174 17.4551 5.84961 17.4551H7.89062C8.125 17.4551 8.32682 17.3705 8.49609 17.2012C8.66536 17.0319 8.75 16.8334 8.75 16.6055C8.75 16.3711 8.66536 16.1709 8.49609 16.0049C8.32682 15.8389 8.125 15.7559 7.89062 15.7559H5.84961ZM9.53125 11.7812C9.69401 11.944 9.89421 12.0254 10.1318 12.0254C10.3695 12.0254 10.5697 11.944 10.7324 11.7812C10.8952 11.625 10.9782 11.4248 10.9815 11.1807C10.9847 10.9365 10.9049 10.7363 10.7422 10.5801L9.28711 9.11523C9.13086 8.95898 8.93392 8.87923 8.69629 8.87598C8.45866 8.87272 8.25521 8.95247 8.08594 9.11523C7.92318 9.278 7.8418 9.47819 7.8418 9.71582C7.8418 9.95345 7.91992 10.1537 8.07617 10.3164L9.53125 11.7812Z" fill="black" fill-opacity="0.5"/>
</g>
<circle cx="16" cy="16" r="15.5" stroke="black" stroke-opacity="0.25"/>
<defs>
<clipPath id="clip0_4_25">
<rect width="21.1426" height="21.2207" fill="white" transform="translate(5 6)"/>
</clipPath>
</defs>
</svg>
