<svg width="47" height="47" viewBox="0 0 47 47" fill="none" xmlns="http://www.w3.org/2000/svg">
<g filter="url(#filter0_d_13_234)">
<rect x="4.55579" y="4.55582" width="37.54" height="37.54" rx="8.38271" fill="white"/>
<rect x="4.55579" y="4.55582" width="37.54" height="37.54" rx="8.38271" fill="url(#paint0_linear_13_234)"/>
</g>
<g filter="url(#filter1_bd_13_234)">
<mask id="path-3-outside-1_13_234" maskUnits="userSpaceOnUse" x="10.5004" y="12.4683" width="24" height="21" fill="black">
<rect fill="white" x="10.5004" y="12.4683" width="24" height="21"/>
<path d="M13.438 32.6753C12.679 32.6753 12.1442 32.4683 11.8337 32.0543C11.5405 31.6403 11.437 31.071 11.5232 30.3465L13.8002 15.9859C13.921 15.3131 14.1711 14.8129 14.5506 14.4851C14.9473 14.1574 15.4735 13.9935 16.129 13.9935C16.7155 13.9935 17.1812 14.1229 17.5262 14.3816C17.8712 14.6231 18.1645 15.0544 18.406 15.6754L22.2355 25.482H21.4592L28.6783 15.339C29.0233 14.856 29.3856 14.511 29.7651 14.304C30.1618 14.097 30.6535 13.9935 31.24 13.9935C31.9645 13.9935 32.4992 14.2005 32.8442 14.6145C33.2065 15.0113 33.3272 15.5805 33.2065 16.3223L30.9295 30.6829C30.826 31.3384 30.5758 31.8386 30.1791 32.1836C29.7823 32.5114 29.2476 32.6753 28.5748 32.6753C27.8676 32.6753 27.3501 32.4683 27.0223 32.0543C26.6946 31.6403 26.5825 31.071 26.686 30.3465L28.0832 21.4714H28.6783L23.2705 29.001C23.0117 29.3633 22.7443 29.622 22.4683 29.7773C22.1923 29.9325 21.8473 30.0101 21.4333 30.0101C20.9848 30.0101 20.6312 29.9066 20.3725 29.6996C20.1137 29.4926 19.8808 29.1735 19.6738 28.7423L16.6465 21.6266H17.2157L15.7667 30.6829C15.6632 31.3384 15.4131 31.8386 15.0163 32.1836C14.6368 32.5114 14.1107 32.6753 13.438 32.6753Z"/>
</mask>
<path d="M13.438 32.6753C12.679 32.6753 12.1442 32.4683 11.8337 32.0543C11.5405 31.6403 11.437 31.071 11.5232 30.3465L13.8002 15.9859C13.921 15.3131 14.1711 14.8129 14.5506 14.4851C14.9473 14.1574 15.4735 13.9935 16.129 13.9935C16.7155 13.9935 17.1812 14.1229 17.5262 14.3816C17.8712 14.6231 18.1645 15.0544 18.406 15.6754L22.2355 25.482H21.4592L28.6783 15.339C29.0233 14.856 29.3856 14.511 29.7651 14.304C30.1618 14.097 30.6535 13.9935 31.24 13.9935C31.9645 13.9935 32.4992 14.2005 32.8442 14.6145C33.2065 15.0113 33.3272 15.5805 33.2065 16.3223L30.9295 30.6829C30.826 31.3384 30.5758 31.8386 30.1791 32.1836C29.7823 32.5114 29.2476 32.6753 28.5748 32.6753C27.8676 32.6753 27.3501 32.4683 27.0223 32.0543C26.6946 31.6403 26.5825 31.071 26.686 30.3465L28.0832 21.4714H28.6783L23.2705 29.001C23.0117 29.3633 22.7443 29.622 22.4683 29.7773C22.1923 29.9325 21.8473 30.0101 21.4333 30.0101C20.9848 30.0101 20.6312 29.9066 20.3725 29.6996C20.1137 29.4926 19.8808 29.1735 19.6738 28.7423L16.6465 21.6266H17.2157L15.7667 30.6829C15.6632 31.3384 15.4131 31.8386 15.0163 32.1836C14.6368 32.5114 14.1107 32.6753 13.438 32.6753Z" fill="url(#paint1_linear_13_234)" shape-rendering="crispEdges"/>
<path d="M11.8337 32.0543L11.2472 32.4697L11.2529 32.4777L11.2587 32.4855L11.8337 32.0543ZM11.5232 30.3465L10.8133 30.234L10.8112 30.2477L10.8095 30.2615L11.5232 30.3465ZM13.8002 15.9859L13.0928 15.8589L13.0915 15.8661L13.0903 15.8733L13.8002 15.9859ZM14.5506 14.4851L14.0928 13.931L14.0868 13.936L14.0808 13.9412L14.5506 14.4851ZM17.5262 14.3816L17.095 14.9566L17.1044 14.9637L17.114 14.9705L17.5262 14.3816ZM18.406 15.6754L17.7361 15.9359L17.7365 15.9368L18.406 15.6754ZM22.2355 25.482V26.2008H23.2878L22.905 25.2206L22.2355 25.482ZM21.4592 25.482L20.8736 25.0652L20.0655 26.2008H21.4592V25.482ZM28.6783 15.339L28.0935 14.9212L28.0928 14.9222L28.6783 15.339ZM29.7651 14.304L29.4326 13.6667L29.4209 13.673L29.7651 14.304ZM32.8442 14.6145L32.2921 15.0746L32.3025 15.0871L32.3134 15.0991L32.8442 14.6145ZM33.2065 16.3223L32.4971 16.2068L32.4966 16.2097L33.2065 16.3223ZM30.9295 30.6829L30.2196 30.5703L30.2195 30.5708L30.9295 30.6829ZM30.1791 32.1836L30.6369 32.7378L30.6439 32.732L30.6507 32.726L30.1791 32.1836ZM27.0223 32.0543L27.5859 31.6081L27.5859 31.6081L27.0223 32.0543ZM26.686 30.3465L25.9759 30.2347L25.9744 30.2449L26.686 30.3465ZM28.0832 21.4714V20.7526H27.4688L27.3732 21.3596L28.0832 21.4714ZM28.6783 21.4714L29.2621 21.8907L30.0795 20.7526H28.6783V21.4714ZM23.2705 29.001L22.6867 28.5817L22.6856 28.5832L23.2705 29.001ZM22.4683 29.7773L22.8207 30.4037L22.8207 30.4037L22.4683 29.7773ZM20.3725 29.6996L20.8215 29.1384L20.8215 29.1384L20.3725 29.6996ZM19.6738 28.7423L19.0125 29.0236L19.0188 29.0386L19.0259 29.0533L19.6738 28.7423ZM16.6465 21.6266V20.9079H15.5596L15.9851 21.908L16.6465 21.6266ZM17.2157 21.6266L17.9254 21.7402L18.0586 20.9079H17.2157V21.6266ZM15.7667 30.6829L15.057 30.5693L15.0568 30.5708L15.7667 30.6829ZM15.0163 32.1836L15.4861 32.7276L15.488 32.726L15.0163 32.1836ZM13.438 31.9565C12.7948 31.9565 12.5287 31.7829 12.4087 31.623L11.2587 32.4855C11.7598 33.1536 12.5632 33.394 13.438 33.394V31.9565ZM12.4202 31.6388C12.2672 31.4227 12.1626 31.0558 12.2369 30.4315L10.8095 30.2615C10.7113 31.0862 10.8138 31.8578 11.2472 32.4697L12.4202 31.6388ZM12.2331 30.4591L14.5101 16.0984L13.0903 15.8733L10.8133 30.234L12.2331 30.4591ZM14.5077 16.1129C14.6098 15.5437 14.8041 15.2159 15.0204 15.0291L14.0808 13.9412C13.538 14.4099 13.2321 15.0826 13.0928 15.8589L14.5077 16.1129ZM15.0084 15.0393C15.2444 14.8443 15.5938 14.7123 16.129 14.7123V13.2748C15.3531 13.2748 14.6503 13.4705 14.0928 13.931L15.0084 15.0393ZM16.129 14.7123C16.6152 14.7123 16.9123 14.8196 17.095 14.9566L17.9575 13.8066C17.4501 13.4261 16.8158 13.2748 16.129 13.2748V14.7123ZM17.114 14.9705C17.2929 15.0956 17.5186 15.3765 17.7361 15.9359L19.0759 15.4149C18.8104 14.7322 18.4496 14.1506 17.9384 13.7928L17.114 14.9705ZM17.7365 15.9368L21.566 25.7435L22.905 25.2206L19.0755 15.4139L17.7365 15.9368ZM22.2355 24.7633H21.4592V26.2008H22.2355V24.7633ZM22.0448 25.8988L29.2639 15.7558L28.0928 14.9222L20.8736 25.0652L22.0448 25.8988ZM29.2632 15.7568C29.5673 15.331 29.8538 15.0744 30.1093 14.935L29.4209 13.673C28.9174 13.9477 28.4793 14.381 28.0935 14.9212L29.2632 15.7568ZM30.0976 14.9412C30.3648 14.8018 30.7346 14.7123 31.24 14.7123V13.2748C30.5724 13.2748 29.9589 13.3922 29.4326 13.6668L30.0976 14.9412ZM31.24 14.7123C31.8291 14.7123 32.1267 14.8762 32.2921 15.0746L33.3964 14.1544C32.8717 13.5248 32.0998 13.2748 31.24 13.2748V14.7123ZM32.3134 15.0991C32.4748 15.2758 32.5974 15.5906 32.4971 16.2068L33.9159 16.4377C34.0571 15.5704 33.9382 14.7467 33.375 14.1299L32.3134 15.0991ZM32.4966 16.2097L30.2196 30.5703L31.6394 30.7954L33.9164 16.4348L32.4966 16.2097ZM30.2195 30.5708C30.1353 31.1042 29.9461 31.4338 29.7075 31.6413L30.6507 32.726C31.2056 32.2435 31.5167 31.5725 31.6394 30.795L30.2195 30.5708ZM29.7213 31.6295C29.4885 31.8219 29.1325 31.9565 28.5748 31.9565V33.394C29.3627 33.394 30.0762 33.2009 30.6369 32.7378L29.7213 31.6295ZM28.5748 31.9565C28.0073 31.9565 27.7344 31.7957 27.5859 31.6081L26.4588 32.5004C26.9658 33.1408 27.7279 33.394 28.5748 33.394V31.9565ZM27.5859 31.6081C27.4218 31.4008 27.3108 31.0549 27.3975 30.4482L25.9744 30.2449C25.8541 31.0872 25.9674 31.8797 26.4588 32.5004L27.5859 31.6081ZM27.396 30.4583L28.7932 21.5832L27.3732 21.3596L25.976 30.2347L27.396 30.4583ZM28.0832 22.1901H28.6783V20.7526H28.0832V22.1901ZM28.0946 21.0521L22.6867 28.5817L23.8543 29.4203L29.2621 21.8907L28.0946 21.0521ZM22.6856 28.5832C22.4649 28.8922 22.2707 29.0638 22.116 29.1508L22.8207 30.4037C23.218 30.1802 23.5586 29.8343 23.8553 29.4188L22.6856 28.5832ZM22.116 29.1508C21.9757 29.2297 21.7608 29.2914 21.4333 29.2914V30.7289C21.9339 30.7289 22.409 30.6353 22.8207 30.4037L22.116 29.1508ZM21.4333 29.2914C21.0906 29.2914 20.9142 29.2126 20.8215 29.1384L19.9235 30.2609C20.3483 30.6007 20.8791 30.7289 21.4333 30.7289V29.2914ZM20.8215 29.1384C20.6759 29.0219 20.5013 28.8052 20.3218 28.4312L19.0259 29.0533C19.2604 29.5418 19.5516 29.9634 19.9235 30.2609L20.8215 29.1384ZM20.3352 28.4609L17.3079 21.3453L15.9851 21.908L19.0125 29.0236L20.3352 28.4609ZM16.6465 22.3454H17.2157V20.9079H16.6465V22.3454ZM16.506 21.5131L15.057 30.5693L16.4764 30.7964L17.9254 21.7402L16.506 21.5131ZM15.0568 30.5708C14.9725 31.1042 14.7833 31.4338 14.5447 31.6413L15.488 32.726C16.0429 32.2435 16.3539 31.5725 16.4767 30.795L15.0568 30.5708ZM14.5466 31.6397C14.3365 31.8211 13.9977 31.9565 13.438 31.9565V33.394C14.2238 33.394 14.9372 33.2017 15.4861 32.7276L14.5466 31.6397Z" fill="white" mask="url(#path-3-outside-1_13_234)"/>
</g>
<defs>
<filter id="filter0_d_13_234" x="3.55351" y="4.05468" width="39.5445" height="39.5445" filterUnits="userSpaceOnUse" color-interpolation-filters="sRGB">
<feFlood flood-opacity="0" result="BackgroundImageFix"/>
<feColorMatrix in="SourceAlpha" type="matrix" values="0 0 0 0 0 0 0 0 0 0 0 0 0 0 0 0 0 0 127 0" result="hardAlpha"/>
<feOffset dy="0.50114"/>
<feGaussianBlur stdDeviation="0.50114"/>
<feColorMatrix type="matrix" values="0 0 0 0 0 0 0 0 0 0 0 0 0 0 0 0 0 0 0.28 0"/>
<feBlend mode="normal" in2="BackgroundImageFix" result="effect1_dropShadow_13_234"/>
<feBlend mode="normal" in="SourceGraphic" in2="effect1_dropShadow_13_234" result="shape"/>
</filter>
<filter id="filter1_bd_13_234" x="-96.4187" y="-93.819" width="237.619" height="234.307" filterUnits="userSpaceOnUse" color-interpolation-filters="sRGB">
<feFlood flood-opacity="0" result="BackgroundImageFix"/>
<feGaussianBlur in="BackgroundImageFix" stdDeviation="53.9062"/>
<feComposite in2="SourceAlpha" operator="in" result="effect1_backgroundBlur_13_234"/>
<feColorMatrix in="SourceAlpha" type="matrix" values="0 0 0 0 0 0 0 0 0 0 0 0 0 0 0 0 0 0 127 0" result="hardAlpha"/>
<feOffset dy="0.380165"/>
<feGaussianBlur stdDeviation="0.380165"/>
<feComposite in2="hardAlpha" operator="out"/>
<feColorMatrix type="matrix" values="0 0 0 0 0 0 0 0 0 0 0 0 0 0 0 0 0 0 0.25 0"/>
<feBlend mode="normal" in2="effect1_backgroundBlur_13_234" result="effect2_dropShadow_13_234"/>
<feBlend mode="normal" in="SourceGraphic" in2="effect2_dropShadow_13_234" result="shape"/>
</filter>
<linearGradient id="paint0_linear_13_234" x1="23.3258" y1="4.55582" x2="23.3258" y2="42.0958" gradientUnits="userSpaceOnUse">
<stop stop-opacity="0"/>
<stop offset="0.445" stop-opacity="0.2"/>
</linearGradient>
<linearGradient id="paint1_linear_13_234" x1="32.3441" y1="8.41641" x2="11.5004" y2="31.1139" gradientUnits="userSpaceOnUse">
<stop offset="0.302566" stop-color="#6EA9E3" stop-opacity="0.9"/>
<stop offset="0.52" stop-color="#F0948E" stop-opacity="0.9"/>
<stop offset="0.712654" stop-color="#BE4352" stop-opacity="0.9"/>
</linearGradient>
</defs>
</svg>
