<svg width="45" height="45" viewBox="0 0 45 45" fill="none" xmlns="http://www.w3.org/2000/svg">
<rect width="45" height="45" rx="8.78906" fill="white"/>
<rect x="0.25" y="0.25" width="44.5" height="44.5" rx="8.53906" stroke="black" stroke-opacity="0.25" stroke-width="0.5"/>
<g clip-path="url(#clip0_13_279)">
<path d="M19.2663 30.408H25.7248C25.8794 30.408 26.0013 30.3633 26.0905 30.2741C26.1797 30.1849 26.2243 30.066 26.2243 29.9173V28.49C26.2243 28.0619 26.3299 27.6515 26.541 27.259C26.7521 26.8665 27.0123 26.4665 27.3215 26.0591C27.6308 25.6518 27.9415 25.2117 28.2537 24.7389C28.566 24.2661 28.8276 23.7324 29.0388 23.1377C29.2499 22.543 29.3555 21.8591 29.3555 21.086C29.3555 20.075 29.1919 19.1532 28.8648 18.3206C28.5377 17.488 28.0723 16.7744 27.4687 16.1796C26.8651 15.5849 26.1425 15.1255 25.3011 14.8014C24.4595 14.4773 23.5244 14.3152 22.4955 14.3152C21.4726 14.3152 20.5404 14.4773 19.6989 14.8014C18.8574 15.1255 18.1349 15.5849 17.5312 16.1796C16.9276 16.7744 16.4623 17.488 16.1352 18.3206C15.8081 19.1532 15.6445 20.075 15.6445 21.086C15.6445 21.8591 15.7501 22.543 15.9612 23.1377C16.1723 23.7324 16.434 24.2661 16.7462 24.7389C17.0584 25.2117 17.3692 25.6518 17.6784 26.0591C17.9877 26.4665 18.2479 26.8665 18.459 27.259C18.6701 27.6515 18.7756 28.0619 18.7756 28.49V29.9173C18.7756 30.066 18.8202 30.1849 18.9095 30.2741C18.9987 30.3633 19.1176 30.408 19.2663 30.408ZM20.1048 29.7925C20.1048 29.6497 20.1048 29.507 20.1048 29.3642C20.1048 29.2215 20.1048 29.0788 20.1048 28.9361C20.1048 28.7933 20.1048 28.6506 20.1048 28.5079C20.1048 27.9845 20.0007 27.4998 19.7926 27.0538C19.5844 26.6078 19.3258 26.1707 19.0165 25.7425C18.7073 25.3143 18.398 24.8712 18.0888 24.4133C17.7795 23.9554 17.5193 23.4573 17.3082 22.9191C17.0971 22.3809 16.9915 21.7728 16.9915 21.0949C16.9915 20.0066 17.2205 19.055 17.6784 18.2403C18.1363 17.4255 18.7786 16.7922 19.6053 16.3402C20.4319 15.8882 21.3953 15.6623 22.4955 15.6623C23.6017 15.6623 24.5666 15.8882 25.3902 16.3402C26.2139 16.7922 26.8562 17.4255 27.3171 18.2403C27.778 19.055 28.0085 20.0066 28.0085 21.0949C28.0085 21.7728 27.9029 22.3809 27.6918 22.9191C27.4806 23.4573 27.2205 23.9554 26.9112 24.4133C26.602 24.8712 26.2927 25.3143 25.9835 25.7425C25.6742 26.1707 25.4155 26.6078 25.2074 27.0538C24.9993 27.4998 24.8952 27.9845 24.8952 28.5079C24.8952 28.722 24.8952 28.9361 24.8952 29.1501C24.8952 29.3642 24.8952 29.5783 24.8952 29.7925L25.6088 29.061H19.3912L20.1048 29.7925ZM22.5044 34.9663C23.117 34.9663 23.624 34.8355 24.0254 34.5738C24.4268 34.3121 24.6483 33.9672 24.69 33.539H20.3189C20.3605 33.9672 20.5806 34.3121 20.979 34.5738C21.3775 34.8355 21.886 34.9663 22.5044 34.9663ZM19.6142 32.8165H25.4036C25.6296 32.8165 25.8229 32.7347 25.9835 32.5712C26.144 32.4077 26.2243 32.2099 26.2243 31.9779C26.2243 31.746 26.144 31.5483 25.9835 31.3847C25.8229 31.2212 25.6296 31.1395 25.4036 31.1395H19.6142C19.3822 31.1395 19.186 31.2212 19.0254 31.3847C18.8649 31.5483 18.7846 31.746 18.7846 31.9779C18.7846 32.2099 18.8649 32.4077 19.0254 32.5712C19.186 32.7347 19.3822 32.8165 19.6142 32.8165Z" fill="black"/>
<g clip-path="url(#clip1_13_279)">
<path d="M18.3309 20.5133C18.3309 20.9046 18.4143 21.2462 18.5811 21.5381C18.7479 21.83 18.982 22.0567 19.2835 22.2181C19.585 22.3796 19.9357 22.4603 20.3356 22.4603C20.7291 22.4603 21.0744 22.3876 21.3717 22.2422C21.6689 22.0968 21.8998 21.8931 22.0645 21.6311C22.2291 21.3692 22.3115 21.0639 22.3115 20.7154C22.3115 20.4972 22.2751 20.3016 22.2024 20.1284C22.1297 19.9552 22.0292 19.814 21.9009 19.705C21.841 19.6558 21.7903 19.6216 21.7486 19.6023C21.7068 19.5831 21.6582 19.5735 21.6026 19.5735C21.5278 19.5735 21.4674 19.5943 21.4214 19.636C21.3754 19.6777 21.3524 19.7306 21.3524 19.7948C21.3524 19.8482 21.362 19.8915 21.3813 19.9247C21.4005 19.9578 21.4283 19.9894 21.4647 20.0193C21.501 20.0493 21.5438 20.0867 21.593 20.1316C21.6614 20.1979 21.7138 20.2797 21.7502 20.377C21.7865 20.4743 21.8047 20.5839 21.8047 20.7058C21.8047 20.9538 21.7437 21.1708 21.6218 21.3569C21.5 21.5429 21.3294 21.6878 21.1102 21.7915C20.8911 21.8952 20.6361 21.9471 20.3452 21.9471C20.0459 21.9471 19.7839 21.8872 19.5594 21.7675C19.3348 21.6477 19.16 21.4798 19.0349 21.2639C18.9098 21.0479 18.8473 20.7966 18.8473 20.5101C18.8473 20.262 18.9061 20.0289 19.0237 19.8108C19.1413 19.5927 19.3028 19.4174 19.5081 19.2848L19.2514 18.8389C19.0611 18.9565 18.897 19.103 18.7591 19.2784C18.6212 19.4537 18.5153 19.6467 18.4415 19.8573C18.3678 20.068 18.3309 20.2866 18.3309 20.5133ZM19.1969 18.8421C19.1969 19.0816 19.2493 19.2933 19.3541 19.4772C19.4589 19.6611 19.607 19.8055 19.7983 19.9103C19.9897 20.015 20.2169 20.0674 20.48 20.0674C20.5484 20.0674 20.6083 20.0423 20.6596 19.9921C20.7109 19.9418 20.7366 19.8814 20.7366 19.8108C20.7366 19.7403 20.7109 19.6793 20.6596 19.628C20.6083 19.5767 20.5484 19.551 20.48 19.551C20.3217 19.551 20.1854 19.5205 20.071 19.4596C19.9566 19.3986 19.8684 19.3147 19.8064 19.2078C19.7443 19.1009 19.7133 18.979 19.7133 18.8421C19.7133 18.6903 19.7518 18.5561 19.8288 18.4396C19.9058 18.323 20.01 18.2316 20.1416 18.1653C20.2731 18.099 20.4233 18.0659 20.5922 18.0659C20.7077 18.0659 20.8269 18.0846 20.9499 18.122C21.0728 18.1595 21.192 18.2177 21.3075 18.2968L21.609 17.8767C21.4486 17.7655 21.2818 17.6831 21.1086 17.6297C20.9354 17.5762 20.7644 17.5495 20.5954 17.5495C20.3367 17.5495 20.1015 17.6045 19.8898 17.7147C19.6781 17.8248 19.5097 17.9766 19.3846 18.1701C19.2595 18.3637 19.1969 18.5877 19.1969 18.8421ZM20.9066 18.7555C20.9023 18.8389 20.9253 18.9063 20.9755 18.9576C21.0258 19.0089 21.0873 19.0346 21.16 19.0346C21.2305 19.0346 21.2899 19.0121 21.338 18.9672C21.3861 18.9223 21.4123 18.8592 21.4166 18.778C21.4251 18.5748 21.4764 18.3936 21.5705 18.2343C21.6646 18.075 21.7919 17.9499 21.9522 17.859C22.1126 17.7681 22.2965 17.7227 22.5039 17.7227C22.6921 17.7227 22.8621 17.7681 23.0139 17.859C23.1658 17.9499 23.2738 18.0691 23.3379 18.2167C23.3507 18.2402 23.3662 18.2535 23.3844 18.2567C23.4026 18.26 23.4277 18.2573 23.4598 18.2487C23.5133 18.2338 23.5689 18.2225 23.6266 18.215C23.6843 18.2076 23.7421 18.2038 23.7998 18.2038C23.9923 18.206 24.1735 18.253 24.3435 18.345C24.5135 18.4369 24.6519 18.5668 24.7589 18.7347C24.8658 18.9025 24.9192 19.1019 24.9192 19.3329C24.9192 19.5831 24.8679 19.7926 24.7653 19.9616C24.6626 20.1305 24.5311 20.2749 24.3708 20.3946C24.2104 20.5144 24.0404 20.6261 23.8607 20.7298C23.6811 20.8335 23.5111 20.9447 23.3507 21.0634C23.1904 21.1821 23.0588 21.3232 22.9562 21.4868C22.8536 21.6504 22.8022 21.8551 22.8022 22.101C22.8022 22.3341 22.8584 22.5357 22.9706 22.7057C23.0829 22.8757 23.2353 23.0066 23.4277 23.0986C23.6202 23.1905 23.8362 23.2365 24.0756 23.2365C24.1141 23.2365 24.1542 23.236 24.1959 23.2349C24.2376 23.2339 24.2788 23.2323 24.3194 23.2301C24.3451 23.4119 24.3991 23.5846 24.4814 23.7481C24.5637 23.9117 24.6728 24.0454 24.8086 24.1491C24.9444 24.2528 25.1053 24.3046 25.2913 24.3046C25.4923 24.3046 25.6677 24.2496 25.8174 24.1395C25.9671 24.0293 26.0911 23.8823 26.1895 23.6984C26.2878 23.5145 26.3616 23.3081 26.4108 23.0793C26.46 22.8505 26.4845 22.6175 26.4845 22.3801C26.4845 22.1727 26.4797 21.9941 26.4701 21.8444C26.4605 21.6948 26.4482 21.5547 26.4332 21.4243L25.9168 21.5686C25.9318 21.6969 25.9446 21.8246 25.9553 21.9519C25.966 22.0791 25.9713 22.2197 25.9713 22.3737C25.9713 22.6324 25.9414 22.8687 25.8815 23.0826C25.8216 23.2964 25.7404 23.4675 25.6377 23.5958C25.5351 23.7241 25.4196 23.7882 25.2913 23.7882C25.1587 23.7882 25.0513 23.738 24.969 23.6375C24.8866 23.537 24.8268 23.4135 24.7893 23.267C24.7519 23.1205 24.7332 22.9767 24.7332 22.8356C24.7332 22.8206 24.7284 22.8078 24.7188 22.7971C24.7091 22.7864 24.6926 22.7821 24.6691 22.7843C24.6242 22.7843 24.5744 22.7843 24.5199 22.7843C24.4654 22.7843 24.4178 22.7843 24.3772 22.7843C24.0564 22.7843 23.7998 22.7308 23.6074 22.6239C23.4149 22.5169 23.3186 22.3395 23.3186 22.0914C23.3186 21.8947 23.37 21.7322 23.4726 21.6039C23.5753 21.4756 23.7068 21.3622 23.8672 21.2639C24.0275 21.1655 24.1975 21.0661 24.3772 20.9656C24.5568 20.8651 24.7268 20.7469 24.8872 20.6111C25.0476 20.4753 25.1791 20.3053 25.2817 20.1011C25.3844 19.8969 25.4357 19.6408 25.4357 19.3329C25.4357 19.0848 25.3934 18.8603 25.309 18.6593C25.2245 18.4583 25.1096 18.2851 24.9641 18.1397C24.8187 17.9943 24.6519 17.8825 24.4638 17.8045C24.2756 17.7264 24.0767 17.6874 23.8672 17.6874C23.8351 17.6874 23.7977 17.6901 23.7549 17.6954C23.7121 17.7008 23.6683 17.7088 23.6234 17.7195C23.4951 17.5612 23.3331 17.4367 23.1374 17.3458C22.9418 17.2549 22.7317 17.2095 22.5071 17.2095C22.2035 17.2095 21.9335 17.2752 21.6972 17.4067C21.4609 17.5382 21.2733 17.72 21.1343 17.952C20.9953 18.184 20.9194 18.4519 20.9066 18.7555ZM24.6787 21.9022C24.6787 21.9727 24.7038 22.0321 24.7541 22.0802C24.8043 22.1283 24.8658 22.1545 24.9385 22.1588C25.3042 22.1823 25.6249 22.1304 25.9008 22.0032C26.1766 21.876 26.391 21.6873 26.5439 21.4371C26.6968 21.1869 26.7732 20.8875 26.7732 20.5389C26.7732 20.2567 26.7101 20.0001 26.584 19.7691C26.4578 19.5382 26.2809 19.3484 26.0531 19.1998C25.8254 19.0512 25.5597 18.9565 25.256 18.9159L25.1758 19.4291C25.5009 19.4334 25.7623 19.5376 25.9601 19.7419C26.1579 19.9461 26.2568 20.2118 26.2568 20.5389C26.2568 20.9003 26.136 21.1826 25.8943 21.3858C25.6527 21.5889 25.3341 21.6755 24.9385 21.6456C24.8658 21.6391 24.8043 21.6627 24.7541 21.7161C24.7038 21.7696 24.6787 21.8316 24.6787 21.9022ZM23.03 22.3192C22.9359 22.3534 22.8349 22.3785 22.7269 22.3945C22.6189 22.4106 22.5136 22.4186 22.4109 22.4186C22.2292 22.4186 22.0522 22.3961 21.8801 22.3512C21.7079 22.3063 21.5534 22.2438 21.4166 22.1636C21.2797 22.0834 21.176 21.9888 21.1054 21.8797L20.6788 22.2261C20.8478 22.4357 21.0782 22.6062 21.3701 22.7377C21.6619 22.8693 21.9907 22.935 22.3564 22.935C22.4868 22.935 22.6248 22.9249 22.7702 22.9045C22.9156 22.8842 23.061 22.8527 23.2064 22.8099L23.03 22.3192ZM22.0004 20.0546L22.1735 20.5421C22.5777 20.463 22.8739 20.3016 23.0621 20.0578C23.2502 19.814 23.3443 19.504 23.3443 19.1276C23.3443 19.057 23.3187 18.9966 23.2673 18.9464C23.216 18.8961 23.1551 18.871 23.0845 18.871C23.0139 18.871 22.9535 18.8961 22.9033 18.9464C22.853 18.9966 22.8279 19.057 22.8279 19.1276C22.8279 19.3906 22.7654 19.6002 22.6403 19.7563C22.5152 19.9124 22.3019 20.0118 22.0004 20.0546Z" fill="black"/>
</g>
</g>
<path d="M22.5519 11.8689V5.53711" stroke="black" stroke-width="0.767486"/>
<path d="M26.0056 12.2862L27.9382 6.25659" stroke="black" stroke-width="0.767486"/>
<path d="M19.0788 12.4043L17.5633 6.25659" stroke="black" stroke-width="0.767486"/>
<defs>
<clipPath id="clip0_13_279">
<rect width="13.7109" height="21.5967" fill="white" transform="translate(15.6445 14.3152)"/>
</clipPath>
<clipPath id="clip1_13_279">
<rect width="8.44235" height="7.11121" fill="white" transform="translate(18.3307 17.1934)"/>
</clipPath>
</defs>
</svg>
