<svg width="762" height="546" viewBox="0 0 762 546" fill="none" xmlns="http://www.w3.org/2000/svg">
<line x1="651.9" y1="531" x2="651.9" y2="1" stroke="black" stroke-opacity="0.25" stroke-width="0.2"/>
<line x1="553.65" y1="492.005" x2="553.65" y2="39.9998" stroke="black" stroke-opacity="0.25" stroke-width="0.2"/>
<line x1="471.9" y1="531" x2="471.9" y2="1" stroke="black" stroke-opacity="0.25" stroke-width="0.2"/>
<line x1="352.9" y1="531" x2="352.9" y2="1" stroke="black" stroke-opacity="0.25" stroke-width="0.2"/>
<line x1="231.9" y1="531" x2="231.9" y2="1" stroke="black" stroke-opacity="0.25" stroke-width="0.2"/>
<line x1="152.163" y1="492" x2="152.163" y2="39.9997" stroke="black" stroke-opacity="0.25" stroke-width="0.2"/>
<line x1="51.9" y1="531" x2="51.9" y2="1" stroke="black" stroke-opacity="0.25" stroke-width="0.2"/>
<line y1="-0.1" x2="700" y2="-0.1" transform="matrix(-1 0 0 1 702 40)" stroke="black" stroke-opacity="0.25" stroke-width="0.2"/>
<line y1="-0.1" x2="700" y2="-0.1" transform="matrix(-1 0 0 1 702 492)" stroke="black" stroke-opacity="0.25" stroke-width="0.2"/>
<line y1="-0.1" x2="700" y2="-0.1" transform="matrix(-1 0 0 1 708 172)" stroke="black" stroke-opacity="0.25" stroke-width="0.2"/>
<line y1="-0.1" x2="700" y2="-0.1" transform="matrix(-1 0 0 1 702 266)" stroke="black" stroke-opacity="0.25" stroke-width="0.2"/>
<line y1="-0.1" x2="700" y2="-0.1" transform="matrix(-1 0 0 1 702 332)" stroke="black" stroke-opacity="0.25" stroke-width="0.2"/>
<line x1="52" y1="92.15" x2="652.001" y2="92.15" stroke="black" stroke-opacity="0.25" stroke-width="0.2"/>
<line x1="52" y1="411.9" x2="652.001" y2="411.9" stroke="black" stroke-opacity="0.25" stroke-width="0.2"/>
<line x1="5.93981" y1="526.92" x2="695.94" y2="6.92016" stroke="black" stroke-opacity="0.25" stroke-width="0.2"/>
<line y1="-0.1" x2="864.002" y2="-0.1" transform="matrix(-0.798609 -0.60185 -0.60185 0.798609 698 526)" stroke="black" stroke-opacity="0.25" stroke-width="0.2"/>
<circle cx="353" cy="266" r="99.9" stroke="black" stroke-opacity="0.25" stroke-width="0.2"/>
<circle cx="351" cy="266" r="124.9" stroke="black" stroke-opacity="0.25" stroke-width="0.2"/>
<path d="M39.9082 332C39.9082 332 -92.5769 32.8366 131.398 80.8443C355.373 128.852 342.874 1 342.874 1" stroke="black" stroke-opacity="0.25" stroke-width="0.5"/>
<path d="M109.199 386C69.1816 491.971 273.768 378.453 259.262 545" stroke="black" stroke-opacity="0.25" stroke-width="0.5"/>
<path d="M702.801 259C742.818 449.614 538.232 245.424 552.738 545" stroke="black" stroke-opacity="0.25" stroke-width="0.5"/>
<path d="M722.661 205C722.661 205 853.209 20.6214 632.508 50.2092C411.808 79.7969 424.124 1 424.124 1" stroke="black" stroke-opacity="0.25" stroke-width="0.5"/>
</svg>
