<svg width="24" height="32" viewBox="0 0 24 32" fill="none" xmlns="http://www.w3.org/2000/svg">
<g clip-path="url(#clip0_13_150)">
<path d="M15.1698 11.5583L11.9696 14.538L8.9989 8.54355L10.5335 5.09682C10.9214 4.40929 11.5557 4.40021 11.9436 5.09682L15.1698 11.5583Z" fill="#FFA000"/>
<path d="M11.9708 14.5368L0 25.6709L9.00016 8.54358L11.9708 14.5368Z" fill="#F57F17"/>
<path d="M18.6788 7.00122C19.2521 6.45509 19.8424 6.63929 19.9916 7.41503L23.1036 25.5204L12.7816 31.7173C12.4197 31.9197 11.4597 31.9988 11.4597 31.9988C11.4597 31.9988 10.5867 31.8924 10.252 31.7082L0 25.6709L18.6788 7.00122Z" fill="#FFCA28"/>
<path d="M9.00016 8.54362L0 25.6709L4.01103 0.637018C4.1615 -0.138724 4.60126 -0.217855 4.99822 0.469675L9.00016 8.54362Z" fill="#FFA000"/>
</g>
<defs>
<clipPath id="clip0_13_150">
<rect width="23.1036" height="32" fill="white"/>
</clipPath>
</defs>
</svg>
