<svg width="28" height="30" viewBox="0 0 28 30" fill="none" xmlns="http://www.w3.org/2000/svg">
<g clip-path="url(#clip0_13_155)">
<path d="M10.0051 0.935708C5.44496 1.27313 1.56831 1.58345 1.38604 1.61979C0.875 1.71092 0.410102 2.05758 0.191496 2.51382L0 2.91527L0.0184575 12.4832L0.0455669 22.0511L0.337426 22.644C0.501813 22.9722 1.61445 24.5048 2.82746 26.0823C5.22635 29.1924 5.39939 29.366 6.31131 29.4571C6.57606 29.4842 8.56427 29.3931 10.7169 29.2656C12.8787 29.1289 16.3441 28.919 18.424 28.8007C27.3073 28.2614 26.851 28.307 27.3615 27.8692C28 27.3403 27.9544 28.2066 27.9815 16.5779C28 6.71809 27.9908 6.07093 27.8448 5.76984C27.6718 5.43241 27.3615 5.19535 23.3118 2.34944C20.6032 0.452352 20.4117 0.35199 19.1981 0.333532C18.6969 0.315652 14.556 0.589053 10.0051 0.935708ZM20.2565 2.18505C20.6395 2.35809 23.4399 4.30997 23.85 4.68431C23.9595 4.7939 23.9959 4.88503 23.9411 4.93983C23.8136 5.04942 6.48377 6.08016 5.98253 6.0069C5.7547 5.97056 5.41727 5.83386 5.22578 5.70581C4.4321 5.16766 2.46234 3.55321 2.46234 3.43497C2.46234 3.12465 2.39832 3.12465 10.1239 2.56862C11.6017 2.46826 14.0277 2.28599 15.5054 2.16717C18.7061 1.91165 19.6641 1.92088 20.2565 2.18505ZM25.7655 7.17434C25.893 7.30181 26.0026 7.5481 26.0389 7.78516C26.066 8.00435 26.0845 12.0904 26.066 16.8513C26.0389 25.0233 26.0297 25.5343 25.8745 25.7714C25.7834 25.9173 25.6011 26.0725 25.4638 26.1181C25.0814 26.2732 6.92213 27.304 6.54837 27.1944C6.37533 27.1488 6.13769 27.0029 6.01022 26.8754L5.79104 26.6383L5.76393 17.8278C5.74547 11.6439 5.76393 8.90761 5.83718 8.66132C5.89198 8.47905 6.02868 8.25987 6.1475 8.18719C6.31188 8.0776 7.38818 7.98647 11.0912 7.76786C13.6908 7.62193 17.7128 7.37564 20.0206 7.23894C25.51 6.90094 25.4921 6.90094 25.7655 7.17434Z" fill="black"/>
<path d="M20.8858 10.1933C19.9006 10.2574 19.0251 10.3485 18.9247 10.4033C18.6236 10.5585 18.4413 10.814 18.405 11.1058C18.3779 11.4069 18.469 11.4433 19.4536 11.5621L19.8822 11.6169V15.5114C19.8822 17.8278 19.8458 19.3604 19.8003 19.3148C19.7547 19.26 18.4598 17.2902 16.918 14.9369C15.3768 12.5749 14.0998 10.6317 14.0813 10.6138C14.0629 10.5954 13.0598 10.6502 11.8561 10.7326C10.3783 10.833 9.56676 10.9241 9.40237 11.0153C9.13762 11.152 8.84576 11.6353 8.84576 11.9549C8.84576 12.1464 9.19242 12.2467 9.92207 12.2467H10.3051V23.447L9.685 23.6385C9.20165 23.7844 9.03726 23.8755 8.95536 24.0578C8.80943 24.3681 8.81865 24.6507 8.96458 24.6507C9.01938 24.6507 10.0501 24.5867 11.2354 24.514C13.5795 24.3773 13.8437 24.3133 14.09 23.83C14.1632 23.684 14.2267 23.5289 14.2267 23.4833C14.2267 23.447 13.9077 23.3374 13.5242 23.2462C13.1319 23.1551 12.7397 23.064 12.6578 23.0455C12.5027 22.9999 12.4934 22.7173 12.4934 18.7951V14.5903L15.2661 18.941C18.1754 23.5012 18.5406 24.0215 18.9876 24.2493C19.5442 24.5411 20.9579 24.3404 21.6691 23.8755L21.8883 23.7388L21.9067 17.5187L21.9339 11.2893L22.4172 11.1981C22.9917 11.0885 23.2564 10.8244 23.2564 10.3681C23.2564 10.0763 23.238 10.0578 22.9646 10.067C22.8014 10.0745 21.8618 10.1293 20.8858 10.1933Z" fill="black"/>
</g>
<defs>
<clipPath id="clip0_13_155">
<rect width="28" height="29.7999" rx="1" fill="white"/>
</clipPath>
</defs>
</svg>
