<svg width="40" height="40" viewBox="0 0 40 40" fill="none" xmlns="http://www.w3.org/2000/svg">
<g clip-path="url(#clip0_13_162)">
<path d="M0 0H40V40H0V0Z" fill="#222222"/>
<path d="M19.9691 23.3206C21.8164 23.3206 23.314 21.823 23.314 19.9757C23.314 18.1283 21.8164 16.6307 19.9691 16.6307C18.1217 16.6307 16.6241 18.1283 16.6241 19.9757C16.6241 21.823 18.1217 23.3206 19.9691 23.3206Z" fill="#00D8FF"/>
<path d="M19.969 13.1752C24.4591 13.1752 28.6309 13.8197 31.7758 14.9019C35.5651 16.2062 37.8953 18.1838 37.8953 19.9745C37.8953 21.8405 35.4258 23.9418 31.3568 25.2893C28.2805 26.3085 24.2314 26.8413 19.969 26.8413C15.5983 26.8413 11.4607 26.3417 8.34904 25.2783C4.41271 23.933 2.04163 21.8051 2.04163 19.9745C2.04163 18.1982 4.2668 16.2361 8.00305 14.9339C11.1601 13.8341 15.4347 13.1752 19.969 13.1752Z" stroke="#00D8FF" stroke-width="1.60002" stroke-miterlimit="10"/>
<path d="M14.0496 16.5954C16.2925 12.7055 18.9355 9.41359 21.4448 7.23043C24.468 4.59957 27.3454 3.56934 28.8963 4.46361C30.5124 5.39546 31.0993 8.58454 30.2338 12.784C29.5794 15.9587 28.0186 19.7314 25.8885 23.4245C23.7053 27.2105 21.2049 30.5455 18.7299 32.7099C15.5983 35.448 12.5695 36.4384 10.9844 35.5242C9.44566 34.6366 8.85758 31.7294 9.59489 27.8417C10.2183 24.5543 11.7836 20.5229 14.0496 16.5954Z" stroke="#00D8FF" stroke-width="1.60002" stroke-miterlimit="10"/>
<path d="M14.0551 23.4323C11.8057 19.5457 10.2736 15.6127 9.63465 12.3484C8.8653 8.41542 9.40915 5.40763 10.9589 4.51115C12.5739 3.57598 15.6292 4.66038 18.8349 7.50678C21.259 9.659 23.7473 12.8956 25.8829 16.5854C28.0727 20.3681 29.7142 24.1994 30.3521 27.4239C31.1601 31.505 30.5057 34.6234 28.9217 35.5397C27.3841 36.4296 24.5719 35.4878 21.5719 32.9067C19.0383 30.7257 16.3267 27.3565 14.0551 23.4323Z" stroke="#00D8FF" stroke-width="1.60002" stroke-miterlimit="10"/>
</g>
<defs>
<clipPath id="clip0_13_162">
<rect width="40" height="40" rx="8" fill="white"/>
</clipPath>
</defs>
</svg>
